<svg width="192" height="24" viewBox="0 0 192 24" fill="none" xmlns="http://www.w3.org/2000/svg">
<path d="M6.252 23.28C4.124 23.28 2.63067 22.6547 1.772 21.404C0.932 20.1533 0.512 18.4173 0.512 16.196V7.18C0.512 4.90267 0.932 3.15733 1.772 1.944C2.63067 0.711999 4.124 0.0959995 6.252 0.0959995C8.19333 0.0959995 9.57467 0.646666 10.396 1.748C11.2173 2.84933 11.628 4.44533 11.628 6.536V7.908H9.612V6.592C9.612 5.50933 9.528 4.632 9.36 3.96C9.192 3.26933 8.86533 2.73733 8.38 2.364C7.89467 1.99067 7.19467 1.804 6.28 1.804C5.29067 1.804 4.53467 2.00933 4.012 2.42C3.48933 2.83067 3.13467 3.4 2.948 4.128C2.76133 4.83733 2.668 5.752 2.668 6.872V16.532C2.668 18.2867 2.92933 19.5653 3.452 20.368C3.99333 21.1707 4.936 21.572 6.28 21.572C7.60533 21.572 8.492 21.1707 8.94 20.368C9.388 19.5467 9.612 18.3053 9.612 16.644V15.16H11.628V16.504C11.628 18.6693 11.2267 20.34 10.424 21.516C9.62133 22.692 8.23067 23.28 6.252 23.28ZM20.3367 23.28C18.2087 23.28 16.6967 22.6733 15.8007 21.46C14.9233 20.2467 14.4847 18.5293 14.4847 16.308V6.9C14.4847 4.69733 14.9327 3.01733 15.8287 1.86C16.7247 0.683999 18.2273 0.0959995 20.3367 0.0959995C22.4087 0.0959995 23.8927 0.683999 24.7887 1.86C25.6847 3.036 26.1327 4.716 26.1327 6.9V16.336C26.1327 18.5573 25.694 20.2747 24.8167 21.488C23.9393 22.6827 22.446 23.28 20.3367 23.28ZM20.3367 21.572C21.718 21.572 22.67 21.1707 23.1927 20.368C23.7153 19.5467 23.9767 18.352 23.9767 16.784V6.508C23.9767 4.94 23.7153 3.764 23.1927 2.98C22.6887 2.196 21.7367 1.804 20.3367 1.804C18.918 1.804 17.9473 2.196 17.4247 2.98C16.902 3.74533 16.6407 4.92133 16.6407 6.508V16.784C16.6407 18.3707 16.902 19.5653 17.4247 20.368C17.9473 21.1707 18.918 21.572 20.3367 21.572ZM29.6716 0.319998H31.2116L38.4356 17.932V0.319998H40.2836V23H38.7716L31.5196 5.192V23H29.6716V0.319998ZM44.2185 0.319998H45.7585L52.9825 17.932V0.319998H54.8305V23H53.3185L46.0665 5.192V23H44.2185V0.319998ZM64.1413 23.28C62.0133 23.28 60.5013 22.6733 59.6053 21.46C58.728 20.2467 58.2893 18.5293 58.2893 16.308V6.9C58.2893 4.69733 58.7373 3.01733 59.6333 1.86C60.5293 0.683999 62.032 0.0959995 64.1413 0.0959995C66.2133 0.0959995 67.6973 0.683999 68.5933 1.86C69.4893 3.036 69.9373 4.716 69.9373 6.9V16.336C69.9373 18.5573 69.4987 20.2747 68.6213 21.488C67.744 22.6827 66.2507 23.28 64.1413 23.28ZM64.1413 21.572C65.5227 21.572 66.4747 21.1707 66.9973 20.368C67.52 19.5467 67.7813 18.352 67.7813 16.784V6.508C67.7813 4.94 67.52 3.764 66.9973 2.98C66.4933 2.196 65.5413 1.804 64.1413 1.804C62.7227 1.804 61.752 2.196 61.2293 2.98C60.7067 3.74533 60.4453 4.92133 60.4453 6.508V16.784C60.4453 18.3707 60.7067 19.5653 61.2293 20.368C61.752 21.1707 62.7227 21.572 64.1413 21.572ZM73.4763 0.319998H78.6003C80.6349 0.319998 82.0816 0.814665 82.9403 1.804C83.7989 2.77467 84.2283 4.20267 84.2283 6.088C84.2283 7.52533 83.9949 8.71067 83.5283 9.644C83.0616 10.5773 82.2496 11.1653 81.0923 11.408L84.5643 23H82.4923L79.1603 11.856H75.6043V23H73.4763V0.319998ZM78.4883 10.288C79.8509 10.288 80.8029 9.952 81.3443 9.28C81.8856 8.608 82.1563 7.544 82.1563 6.088C82.1563 4.61333 81.8949 3.54933 81.3723 2.896C80.8683 2.24267 79.9256 1.916 78.5443 1.916H75.6043V10.288H78.4883Z" fill="#F5F5F5"/>
<path d="M101.156 23.336C98.7111 23.336 96.9658 22.7107 95.9205 21.46C94.8751 20.1907 94.3525 18.324 94.3525 15.86V7.432C94.3525 4.968 94.8751 3.12 95.9205 1.888C96.9658 0.637333 98.7111 0.0119989 101.156 0.0119989C103.62 0.0119989 105.375 0.637333 106.42 1.888C107.484 3.13867 108.016 4.98667 108.016 7.432V15.86C108.016 18.324 107.484 20.1907 106.42 21.46C105.375 22.7107 103.62 23.336 101.156 23.336ZM101.156 19.78C101.866 19.78 102.332 19.5467 102.556 19.08C102.78 18.5947 102.892 17.9413 102.892 17.12V6.2C102.892 5.36 102.78 4.70667 102.556 4.24C102.332 3.77333 101.866 3.54 101.156 3.54C100.484 3.54 100.036 3.78267 99.8125 4.268C99.5885 4.73467 99.4765 5.37867 99.4765 6.2V17.12C99.4765 17.9413 99.5791 18.5947 99.7845 19.08C99.9898 19.5467 100.447 19.78 101.156 19.78ZM117.563 23.336C115.099 23.336 113.344 22.692 112.299 21.404C111.272 20.0973 110.759 18.2213 110.759 15.776V7.6C110.759 5.09867 111.272 3.21333 112.299 1.944C113.325 0.655999 115.08 0.0119989 117.563 0.0119989C119.933 0.0119989 121.613 0.581332 122.603 1.72C123.592 2.85867 124.087 4.47333 124.087 6.564V8.524H119.187V6.256C119.187 5.37867 119.093 4.70667 118.907 4.24C118.72 3.77333 118.272 3.54 117.563 3.54C116.853 3.54 116.387 3.792 116.163 4.296C115.939 4.78133 115.827 5.46267 115.827 6.34V17.008C115.827 17.904 115.939 18.5947 116.163 19.08C116.405 19.5467 116.872 19.78 117.563 19.78C118.253 19.78 118.692 19.5467 118.879 19.08C119.084 18.5947 119.187 17.904 119.187 17.008V14.628H124.087V16.588C124.087 18.716 123.592 20.3773 122.603 21.572C121.613 22.748 119.933 23.336 117.563 23.336ZM130.036 0.319998H135.748L139.976 23H135.356L134.6 18.212H131.268L130.484 23H125.752L130.036 0.319998ZM134.124 15.216L132.92 6.368L131.716 15.216H134.124ZM142.574 0.319998H147.95L150.442 13.508L153.13 0.319998H158.31L158.702 23H155.146L154.726 7.908L152.094 23H148.93L146.13 7.796L145.794 23H142.182L142.574 0.319998ZM161.981 0.319998H169.597C171.594 0.319998 173.087 0.889332 174.077 2.028C175.066 3.148 175.561 4.772 175.561 6.9C175.561 9.32667 174.982 11.016 173.825 11.968C172.686 12.9013 171.081 13.368 169.009 13.368H166.993V23H161.981V0.319998ZM168.673 9.868C169.55 9.868 170.129 9.63467 170.409 9.168C170.707 8.70133 170.857 7.91733 170.857 6.816C170.857 5.808 170.717 5.06133 170.437 4.576C170.157 4.09067 169.559 3.848 168.645 3.848H166.993V9.868H168.673ZM184.473 23.336C182.028 23.336 180.282 22.7107 179.237 21.46C178.192 20.1907 177.669 18.324 177.669 15.86V7.432C177.669 4.968 178.192 3.12 179.237 1.888C180.282 0.637333 182.028 0.0119989 184.473 0.0119989C186.937 0.0119989 188.692 0.637333 189.737 1.888C190.801 3.13867 191.333 4.98667 191.333 7.432V15.86C191.333 18.324 190.801 20.1907 189.737 21.46C188.692 22.7107 186.937 23.336 184.473 23.336ZM184.473 19.78C185.182 19.78 185.649 19.5467 185.873 19.08C186.097 18.5947 186.209 17.9413 186.209 17.12V6.2C186.209 5.36 186.097 4.70667 185.873 4.24C185.649 3.77333 185.182 3.54 184.473 3.54C183.801 3.54 183.353 3.78267 183.129 4.268C182.905 4.73467 182.793 5.37867 182.793 6.2V17.12C182.793 17.9413 182.896 18.5947 183.101 19.08C183.306 19.5467 183.764 19.78 184.473 19.78Z" fill="#34364C"/>
</svg>
